<?xml version='1.0' encoding='UTF-8'?>
<svg width="69mm" height="69mm" version="1.1" viewBox="0 0 69 69" xmlns="http://www.w3.org/2000/svg"><path d="M4,4H5V5H4zM5,4H6V5H5zM6,4H7V5H6zM7,4H8V5H7zM8,4H9V5H8zM9,4H10V5H9zM10,4H11V5H10zM12,4H13V5H12zM14,4H15V5H14zM15,4H16V5H15zM16,4H17V5H16zM17,4H18V5H17zM19,4H20V5H19zM21,4H22V5H21zM22,4H23V5H22zM23,4H24V5H23zM26,4H27V5H26zM28,4H29V5H28zM29,4H30V5H29zM32,4H33V5H32zM33,4H34V5H33zM36,4H37V5H36zM37,4H38V5H37zM40,4H41V5H40zM41,4H42V5H41zM43,4H44V5H43zM44,4H45V5H44zM45,4H46V5H45zM46,4H47V5H46zM47,4H48V5H47zM48,4H49V5H48zM50,4H51V5H50zM53,4H54V5H53zM55,4H56V5H55zM56,4H57V5H56zM58,4H59V5H58zM59,4H60V5H59zM60,4H61V5H60zM61,4H62V5H61zM62,4H63V5H62zM63,4H64V5H63zM64,4H65V5H64zM4,5H5V6H4zM10,5H11V6H10zM12,5H13V6H12zM14,5H15V6H14zM19,5H20V6H19zM20,5H21V6H20zM21,5H22V6H21zM23,5H24V6H23zM24,5H25V6H24zM26,5H27V6H26zM28,5H29V6H28zM32,5H33V6H32zM35,5H36V6H35zM38,5H39V6H38zM40,5H41V6H40zM42,5H43V6H42zM43,5H44V6H43zM44,5H45V6H44zM45,5H46V6H45zM46,5H47V6H46zM47,5H48V6H47zM49,5H50V6H49zM51,5H52V6H51zM52,5H53V6H52zM55,5H56V6H55zM56,5H57V6H56zM58,5H59V6H58zM64,5H65V6H64zM4,6H5V7H4zM6,6H7V7H6zM7,6H8V7H7zM8,6H9V7H8zM10,6H11V7H10zM13,6H14V7H13zM15,6H16V7H15zM18,6H19V7H18zM20,6H21V7H20zM21,6H22V7H21zM26,6H27V7H26zM27,6H28V7H27zM29,6H30V7H29zM30,6H31V7H30zM31,6H32V7H31zM32,6H33V7H32zM34,6H35V7H34zM35,6H36V7H35zM38,6H39V7H38zM39,6H40V7H39zM41,6H42V7H41zM44,6H45V7H44zM45,6H46V7H45zM46,6H47V7H46zM47,6H48V7H47zM48,6H49V7H48zM49,6H50V7H49zM50,6H51V7H50zM52,6H53V7H52zM54,6H55V7H54zM55,6H56V7H55zM56,6H57V7H56zM58,6H59V7H58zM60,6H61V7H60zM61,6H62V7H61zM62,6H63V7H62zM64,6H65V7H64zM4,7H5V8H4zM6,7H7V8H6zM7,7H8V8H7zM8,7H9V8H8zM10,7H11V8H10zM12,7H13V8H12zM14,7H15V8H14zM16,7H17V8H16zM17,7H18V8H17zM18,7H19V8H18zM20,7H21V8H20zM21,7H22V8H21zM22,7H23V8H22zM24,7H25V8H24zM25,7H26V8H25zM26,7H27V8H26zM28,7H29V8H28zM29,7H30V8H29zM30,7H31V8H30zM32,7H33V8H32zM34,7H35V8H34zM37,7H38V8H37zM38,7H39V8H38zM40,7H41V8H40zM42,7H43V8H42zM43,7H44V8H43zM44,7H45V8H44zM50,7H51V8H50zM51,7H52V8H51zM54,7H55V8H54zM56,7H57V8H56zM58,7H59V8H58zM60,7H61V8H60zM61,7H62V8H61zM62,7H63V8H62zM64,7H65V8H64zM4,8H5V9H4zM6,8H7V9H6zM7,8H8V9H7zM8,8H9V9H8zM10,8H11V9H10zM12,8H13V9H12zM13,8H14V9H13zM14,8H15V9H14zM17,8H18V9H17zM19,8H20V9H19zM21,8H22V9H21zM22,8H23V9H22zM24,8H25V9H24zM25,8H26V9H25zM26,8H27V9H26zM29,8H30V9H29zM32,8H33V9H32zM33,8H34V9H33zM34,8H35V9H34zM35,8H36V9H35zM36,8H37V9H36zM38,8H39V9H38zM41,8H42V9H41zM45,8H46V9H45zM46,8H47V9H46zM48,8H49V9H48zM49,8H50V9H49zM51,8H52V9H51zM52,8H53V9H52zM54,8H55V9H54zM55,8H56V9H55zM58,8H59V9H58zM60,8H61V9H60zM61,8H62V9H61zM62,8H63V9H62zM64,8H65V9H64zM4,9H5V10H4zM10,9H11V10H10zM12,9H13V10H12zM16,9H17V10H16zM21,9H22V10H21zM22,9H23V10H22zM23,9H24V10H23zM25,9H26V10H25zM26,9H27V10H26zM28,9H29V10H28zM30,9H31V10H30zM32,9H33V10H32zM36,9H37V10H36zM41,9H42V10H41zM45,9H46V10H45zM46,9H47V10H46zM47,9H48V10H47zM48,9H49V10H48zM49,9H50V10H49zM50,9H51V10H50zM54,9H55V10H54zM58,9H59V10H58zM64,9H65V10H64zM4,10H5V11H4zM5,10H6V11H5zM6,10H7V11H6zM7,10H8V11H7zM8,10H9V11H8zM9,10H10V11H9zM10,10H11V11H10zM12,10H13V11H12zM14,10H15V11H14zM16,10H17V11H16zM18,10H19V11H18zM20,10H21V11H20zM22,10H23V11H22zM24,10H25V11H24zM26,10H27V11H26zM28,10H29V11H28zM30,10H31V11H30zM32,10H33V11H32zM34,10H35V11H34zM36,10H37V11H36zM38,10H39V11H38zM40,10H41V11H40zM42,10H43V11H42zM44,10H45V11H44zM46,10H47V11H46zM48,10H49V11H48zM50,10H51V11H50zM52,10H53V11H52zM54,10H55V11H54zM56,10H57V11H56zM58,10H59V11H58zM59,10H60V11H59zM60,10H61V11H60zM61,10H62V11H61zM62,10H63V11H62zM63,10H64V11H63zM64,10H65V11H64zM15,11H16V12H15zM16,11H17V12H16zM17,11H18V12H17zM20,11H21V12H20zM21,11H22V12H21zM23,11H24V12H23zM24,11H25V12H24zM26,11H27V12H26zM28,11H29V12H28zM32,11H33V12H32zM36,11H37V12H36zM40,11H41V12H40zM41,11H42V12H41zM42,11H43V12H42zM43,11H44V12H43zM46,11H47V12H46zM48,11H49V12H48zM49,11H50V12H49zM50,11H51V12H50zM56,11H57V12H56zM7,12H8V13H7zM10,12H11V13H10zM16,12H17V13H16zM18,12H19V13H18zM19,12H20V13H19zM20,12H21V13H20zM24,12H25V13H24zM26,12H27V13H26zM27,12H28V13H27zM28,12H29V13H28zM30,12H31V13H30zM32,12H33V13H32zM33,12H34V13H33zM34,12H35V13H34zM35,12H36V13H35zM36,12H37V13H36zM37,12H38V13H37zM42,12H43V13H42zM43,12H44V13H43zM45,12H46V13H45zM47,12H48V13H47zM49,12H50V13H49zM50,12H51V13H50zM52,12H53V13H52zM54,12H55V13H54zM55,12H56V13H55zM59,12H60V13H59zM60,12H61V13H60zM61,12H62V13H61zM63,12H64V13H63zM64,12H65V13H64zM6,13H7V14H6zM7,13H8V14H7zM8,13H9V14H8zM12,13H13V14H12zM13,13H14V14H13zM15,13H16V14H15zM16,13H17V14H16zM17,13H18V14H17zM21,13H22V14H21zM23,13H24V14H23zM24,13H25V14H24zM25,13H26V14H25zM27,13H28V14H27zM30,13H31V14H30zM31,13H32V14H31zM34,13H35V14H34zM36,13H37V14H36zM37,13H38V14H37zM38,13H39V14H38zM39,13H40V14H39zM40,13H41V14H40zM41,13H42V14H41zM43,13H44V14H43zM46,13H47V14H46zM51,13H52V14H51zM53,13H54V14H53zM60,13H61V14H60zM61,13H62V14H61zM62,13H63V14H62zM63,13H64V14H63zM64,13H65V14H64zM4,14H5V15H4zM5,14H6V15H5zM6,14H7V15H6zM7,14H8V15H7zM8,14H9V15H8zM9,14H10V15H9zM10,14H11V15H10zM11,14H12V15H11zM12,14H13V15H12zM13,14H14V15H13zM14,14H15V15H14zM15,14H16V15H15zM16,14H17V15H16zM19,14H20V15H19zM23,14H24V15H23zM25,14H26V15H25zM26,14H27V15H26zM27,14H28V15H27zM28,14H29V15H28zM29,14H30V15H29zM32,14H33V15H32zM37,14H38V15H37zM39,14H40V15H39zM41,14H42V15H41zM43,14H44V15H43zM44,14H45V15H44zM46,14H47V15H46zM48,14H49V15H48zM49,14H50V15H49zM50,14H51V15H50zM51,14H52V15H51zM52,14H53V15H52zM53,14H54V15H53zM55,14H56V15H55zM56,14H57V15H56zM57,14H58V15H57zM61,14H62V15H61zM62,14H63V15H62zM64,14H65V15H64zM4,15H5V16H4zM6,15H7V16H6zM12,15H13V16H12zM13,15H14V16H13zM14,15H15V16H14zM16,15H17V16H16zM20,15H21V16H20zM23,15H24V16H23zM25,15H26V16H25zM26,15H27V16H26zM29,15H30V16H29zM30,15H31V16H30zM31,15H32V16H31zM32,15H33V16H32zM34,15H35V16H34zM36,15H37V16H36zM37,15H38V16H37zM39,15H40V16H39zM45,15H46V16H45zM47,15H48V16H47zM49,15H50V16H49zM52,15H53V16H52zM56,15H57V16H56zM57,15H58V16H57zM58,15H59V16H58zM59,15H60V16H59zM63,15H64V16H63zM64,15H65V16H64zM6,16H7V17H6zM9,16H10V17H9zM10,16H11V17H10zM13,16H14V17H13zM15,16H16V17H15zM16,16H17V17H16zM17,16H18V17H17zM18,16H19V17H18zM21,16H22V17H21zM22,16H23V17H22zM24,16H25V17H24zM25,16H26V17H25zM26,16H27V17H26zM27,16H28V17H27zM28,16H29V17H28zM29,16H30V17H29zM30,16H31V17H30zM31,16H32V17H31zM33,16H34V17H33zM34,16H35V17H34zM38,16H39V17H38zM39,16H40V17H39zM40,16H41V17H40zM41,16H42V17H41zM42,16H43V17H42zM45,16H46V17H45zM47,16H48V17H47zM48,16H49V17H48zM49,16H50V17H49zM51,16H52V17H51zM52,16H53V17H52zM59,16H60V17H59zM60,16H61V17H60zM63,16H64V17H63zM64,16H65V17H64zM7,17H8V18H7zM9,17H10V18H9zM17,17H18V18H17zM20,17H21V18H20zM21,17H22V18H21zM22,17H23V18H22zM23,17H24V18H23zM24,17H25V18H24zM25,17H26V18H25zM27,17H28V18H27zM28,17H29V18H28zM33,17H34V18H33zM34,17H35V18H34zM37,17H38V18H37zM39,17H40V18H39zM40,17H41V18H40zM43,17H44V18H43zM47,17H48V18H47zM48,17H49V18H48zM50,17H51V18H50zM52,17H53V18H52zM56,17H57V18H56zM60,17H61V18H60zM62,17H63V18H62zM64,17H65V18H64zM4,18H5V19H4zM7,18H8V19H7zM8,18H9V19H8zM10,18H11V19H10zM11,18H12V19H11zM14,18H15V19H14zM15,18H16V19H15zM18,18H19V19H18zM19,18H20V19H19zM21,18H22V19H21zM26,18H27V19H26zM31,18H32V19H31zM33,18H34V19H33zM35,18H36V19H35zM36,18H37V19H36zM37,18H38V19H37zM41,18H42V19H41zM42,18H43V19H42zM43,18H44V19H43zM44,18H45V19H44zM47,18H48V19H47zM48,18H49V19H48zM53,18H54V19H53zM54,18H55V19H54zM55,18H56V19H55zM57,18H58V19H57zM59,18H60V19H59zM60,18H61V19H60zM62,18H63V19H62zM64,18H65V19H64zM4,19H5V20H4zM13,19H14V20H13zM15,19H16V20H15zM16,19H17V20H16zM17,19H18V20H17zM19,19H20V20H19zM20,19H21V20H20zM21,19H22V20H21zM24,19H25V20H24zM27,19H28V20H27zM28,19H29V20H28zM29,19H30V20H29zM31,19H32V20H31zM37,19H38V20H37zM38,19H39V20H38zM39,19H40V20H39zM40,19H41V20H40zM42,19H43V20H42zM44,19H45V20H44zM46,19H47V20H46zM47,19H48V20H47zM48,19H49V20H48zM50,19H51V20H50zM52,19H53V20H52zM53,19H54V20H53zM54,19H55V20H54zM56,19H57V20H56zM58,19H59V20H58zM60,19H61V20H60zM63,19H64V20H63zM4,20H5V21H4zM5,20H6V21H5zM6,20H7V21H6zM8,20H9V21H8zM9,20H10V21H9zM10,20H11V21H10zM13,20H14V21H13zM15,20H16V21H15zM20,20H21V21H20zM23,20H24V21H23zM25,20H26V21H25zM29,20H30V21H29zM30,20H31V21H30zM31,20H32V21H31zM33,20H34V21H33zM34,20H35V21H34zM37,20H38V21H37zM38,20H39V21H38zM39,20H40V21H39zM41,20H42V21H41zM42,20H43V21H42zM43,20H44V21H43zM44,20H45V21H44zM45,20H46V21H45zM46,20H47V21H46zM48,20H49V21H48zM49,20H50V21H49zM51,20H52V21H51zM52,20H53V21H52zM54,20H55V21H54zM56,20H57V21H56zM57,20H58V21H57zM58,20H59V21H58zM60,20H61V21H60zM62,20H63V21H62zM64,20H65V21H64zM4,21H5V22H4zM5,21H6V22H5zM13,21H14V22H13zM15,21H16V22H15zM17,21H18V22H17zM20,21H21V22H20zM27,21H28V22H27zM28,21H29V22H28zM29,21H30V22H29zM31,21H32V22H31zM33,21H34V22H33zM36,21H37V22H36zM42,21H43V22H42zM43,21H44V22H43zM44,21H45V22H44zM45,21H46V22H45zM48,21H49V22H48zM51,21H52V22H51zM52,21H53V22H52zM54,21H55V22H54zM57,21H58V22H57zM60,21H61V22H60zM62,21H63V22H62zM4,22H5V23H4zM5,22H6V23H5zM9,22H10V23H9zM10,22H11V23H10zM13,22H14V23H13zM16,22H17V23H16zM17,22H18V23H17zM18,22H19V23H18zM19,22H20V23H19zM20,22H21V23H20zM22,22H23V23H22zM24,22H25V23H24zM26,22H27V23H26zM29,22H30V23H29zM31,22H32V23H31zM32,22H33V23H32zM37,22H38V23H37zM38,22H39V23H38zM39,22H40V23H39zM41,22H42V23H41zM42,22H43V23H42zM43,22H44V23H43zM44,22H45V23H44zM47,22H48V23H47zM49,22H50V23H49zM50,22H51V23H50zM51,22H52V23H51zM55,22H56V23H55zM57,22H58V23H57zM60,22H61V23H60zM62,22H63V23H62zM63,22H64V23H63zM5,23H6V24H5zM11,23H12V24H11zM15,23H16V24H15zM16,23H17V24H16zM17,23H18V24H17zM19,23H20V24H19zM20,23H21V24H20zM24,23H25V24H24zM25,23H26V24H25zM27,23H28V24H27zM28,23H29V24H28zM29,23H30V24H29zM30,23H31V24H30zM31,23H32V24H31zM32,23H33V24H32zM33,23H34V24H33zM34,23H35V24H34zM35,23H36V24H35zM38,23H39V24H38zM41,23H42V24H41zM43,23H44V24H43zM46,23H47V24H46zM48,23H49V24H48zM50,23H51V24H50zM52,23H53V24H52zM53,23H54V24H53zM54,23H55V24H54zM55,23H56V24H55zM57,23H58V24H57zM58,23H59V24H58zM59,23H60V24H59zM60,23H61V24H60zM62,23H63V24H62zM63,23H64V24H63zM64,23H65V24H64zM4,24H5V25H4zM5,24H6V25H5zM7,24H8V25H7zM8,24H9V25H8zM9,24H10V25H9zM10,24H11V25H10zM14,24H15V25H14zM17,24H18V25H17zM18,24H19V25H18zM19,24H20V25H19zM21,24H22V25H21zM22,24H23V25H22zM24,24H25V25H24zM26,24H27V25H26zM28,24H29V25H28zM33,24H34V25H33zM34,24H35V25H34zM38,24H39V25H38zM40,24H41V25H40zM42,24H43V25H42zM43,24H44V25H43zM44,24H45V25H44zM47,24H48V25H47zM50,24H51V25H50zM52,24H53V25H52zM53,24H54V25H53zM54,24H55V25H54zM55,24H56V25H55zM58,24H59V25H58zM59,24H60V25H59zM5,25H6V26H5zM6,25H7V26H6zM7,25H8V26H7zM8,25H9V26H8zM11,25H12V26H11zM14,25H15V26H14zM15,25H16V26H15zM19,25H20V26H19zM20,25H21V26H20zM25,25H26V26H25zM26,25H27V26H26zM28,25H29V26H28zM30,25H31V26H30zM31,25H32V26H31zM34,25H35V26H34zM36,25H37V26H36zM38,25H39V26H38zM39,25H40V26H39zM42,25H43V26H42zM44,25H45V26H44zM52,25H53V26H52zM59,25H60V26H59zM64,25H65V26H64zM5,26H6V27H5zM6,26H7V27H6zM7,26H8V27H7zM8,26H9V27H8zM9,26H10V27H9zM10,26H11V27H10zM12,26H13V27H12zM13,26H14V27H13zM17,26H18V27H17zM20,26H21V27H20zM21,26H22V27H21zM24,26H25V27H24zM27,26H28V27H27zM28,26H29V27H28zM29,26H30V27H29zM31,26H32V27H31zM32,26H33V27H32zM36,26H37V27H36zM37,26H38V27H37zM39,26H40V27H39zM41,26H42V27H41zM42,26H43V27H42zM44,26H45V27H44zM45,26H46V27H45zM50,26H51V27H50zM51,26H52V27H51zM53,26H54V27H53zM59,26H60V27H59zM61,26H62V27H61zM63,26H64V27H63zM64,26H65V27H64zM8,27H9V28H8zM12,27H13V28H12zM16,27H17V28H16zM17,27H18V28H17zM24,27H25V28H24zM25,27H26V28H25zM26,27H27V28H26zM27,27H28V28H27zM28,27H29V28H28zM29,27H30V28H29zM33,27H34V28H33zM35,27H36V28H35zM37,27H38V28H37zM39,27H40V28H39zM40,27H41V28H40zM42,27H43V28H42zM43,27H44V28H43zM45,27H46V28H45zM46,27H47V28H46zM51,27H52V28H51zM52,27H53V28H52zM54,27H55V28H54zM57,27H58V28H57zM59,27H60V28H59zM60,27H61V28H60zM63,27H64V28H63zM4,28H5V29H4zM5,28H6V29H5zM6,28H7V29H6zM7,28H8V29H7zM10,28H11V29H10zM14,28H15V29H14zM15,28H16V29H15zM22,28H23V29H22zM23,28H24V29H23zM24,28H25V29H24zM25,28H26V29H25zM27,28H28V29H27zM29,28H30V29H29zM30,28H31V29H30zM32,28H33V29H32zM36,28H37V29H36zM39,28H40V29H39zM40,28H41V29H40zM41,28H42V29H41zM42,28H43V29H42zM44,28H45V29H44zM45,28H46V29H45zM48,28H49V29H48zM49,28H50V29H49zM51,28H52V29H51zM52,28H53V29H52zM54,28H55V29H54zM56,28H57V29H56zM59,28H60V29H59zM63,28H64V29H63zM4,29H5V30H4zM9,29H10V30H9zM11,29H12V30H11zM12,29H13V30H12zM16,29H17V30H16zM17,29H18V30H17zM19,29H20V30H19zM20,29H21V30H20zM23,29H24V30H23zM27,29H28V30H27zM29,29H30V30H29zM30,29H31V30H30zM33,29H34V30H33zM34,29H35V30H34zM37,29H38V30H37zM39,29H40V30H39zM41,29H42V30H41zM43,29H44V30H43zM47,29H48V30H47zM48,29H49V30H48zM50,29H51V30H50zM53,29H54V30H53zM60,29H61V30H60zM61,29H62V30H61zM62,29H63V30H62zM63,29H64V30H63zM64,29H65V30H64zM4,30H5V31H4zM5,30H6V31H5zM10,30H11V31H10zM11,30H12V31H11zM14,30H15V31H14zM15,30H16V31H15zM16,30H17V31H16zM17,30H18V31H17zM18,30H19V31H18zM19,30H20V31H19zM22,30H23V31H22zM23,30H24V31H23zM24,30H25V31H24zM26,30H27V31H26zM27,30H28V31H27zM32,30H33V31H32zM33,30H34V31H33zM34,30H35V31H34zM38,30H39V31H38zM39,30H40V31H39zM40,30H41V31H40zM44,30H45V31H44zM45,30H46V31H45zM48,30H49V31H48zM52,30H53V31H52zM54,30H55V31H54zM57,30H58V31H57zM59,30H60V31H59zM60,30H61V31H60zM62,30H63V31H62zM63,30H64V31H63zM64,30H65V31H64zM4,31H5V32H4zM6,31H7V32H6zM7,31H8V32H7zM9,31H10V32H9zM12,31H13V32H12zM13,31H14V32H13zM16,31H17V32H16zM18,31H19V32H18zM19,31H20V32H19zM20,31H21V32H20zM21,31H22V32H21zM23,31H24V32H23zM25,31H26V32H25zM28,31H29V32H28zM30,31H31V32H30zM31,31H32V32H31zM33,31H34V32H33zM35,31H36V32H35zM36,31H37V32H36zM37,31H38V32H37zM39,31H40V32H39zM42,31H43V32H42zM47,31H48V32H47zM48,31H49V32H48zM49,31H50V32H49zM51,31H52V32H51zM52,31H53V32H52zM53,31H54V32H53zM56,31H57V32H56zM59,31H60V32H59zM60,31H61V32H60zM4,32H5V33H4zM6,32H7V33H6zM7,32H8V33H7zM8,32H9V33H8zM9,32H10V33H9zM10,32H11V33H10zM11,32H12V33H11zM12,32H13V33H12zM14,32H15V33H14zM15,32H16V33H15zM18,32H19V33H18zM19,32H20V33H19zM22,32H23V33H22zM23,32H24V33H23zM26,32H27V33H26zM27,32H28V33H27zM29,32H30V33H29zM30,32H31V33H30zM31,32H32V33H31zM32,32H33V33H32zM33,32H34V33H33zM34,32H35V33H34zM35,32H36V33H35zM36,32H37V33H36zM40,32H41V33H40zM42,32H43V33H42zM43,32H44V33H43zM45,32H46V33H45zM46,32H47V33H46zM48,32H49V33H48zM51,32H52V33H51zM52,32H53V33H52zM54,32H55V33H54zM55,32H56V33H55zM56,32H57V33H56zM57,32H58V33H57zM58,32H59V33H58zM59,32H60V33H59zM60,32H61V33H60zM62,32H63V33H62zM63,32H64V33H63zM64,32H65V33H64zM4,33H5V34H4zM5,33H6V34H5zM7,33H8V34H7zM8,33H9V34H8zM12,33H13V34H12zM16,33H17V34H16zM18,33H19V34H18zM19,33H20V34H19zM21,33H22V34H21zM22,33H23V34H22zM24,33H25V34H24zM27,33H28V34H27zM28,33H29V34H28zM32,33H33V34H32zM36,33H37V34H36zM38,33H39V34H38zM40,33H41V34H40zM41,33H42V34H41zM45,33H46V34H45zM53,33H54V34H53zM54,33H55V34H54zM56,33H57V34H56zM60,33H61V34H60zM61,33H62V34H61zM63,33H64V34H63zM64,33H65V34H64zM4,34H5V35H4zM6,34H7V35H6zM8,34H9V35H8zM10,34H11V35H10zM12,34H13V35H12zM14,34H15V35H14zM16,34H17V35H16zM23,34H24V35H23zM24,34H25V35H24zM26,34H27V35H26zM28,34H29V35H28zM30,34H31V35H30zM31,34H32V35H31zM32,34H33V35H32zM34,34H35V35H34zM36,34H37V35H36zM37,34H38V35H37zM41,34H42V35H41zM44,34H45V35H44zM48,34H49V35H48zM51,34H52V35H51zM52,34H53V35H52zM53,34H54V35H53zM54,34H55V35H54zM55,34H56V35H55zM56,34H57V35H56zM58,34H59V35H58zM60,34H61V35H60zM63,34H64V35H63zM64,34H65V35H64zM5,35H6V36H5zM7,35H8V36H7zM8,35H9V36H8zM12,35H13V36H12zM13,35H14V36H13zM14,35H15V36H14zM15,35H16V36H15zM16,35H17V36H16zM19,35H20V36H19zM22,35H23V36H22zM23,35H24V36H23zM25,35H26V36H25zM28,35H29V36H28zM30,35H31V36H30zM31,35H32V36H31zM32,35H33V36H32zM36,35H37V36H36zM37,35H38V36H37zM39,35H40V36H39zM40,35H41V36H40zM41,35H42V36H41zM44,35H45V36H44zM45,35H46V36H45zM47,35H48V36H47zM48,35H49V36H48zM51,35H52V36H51zM52,35H53V36H52zM55,35H56V36H55zM56,35H57V36H56zM60,35H61V36H60zM62,35H63V36H62zM63,35H64V36H63zM4,36H5V37H4zM6,36H7V37H6zM7,36H8V37H7zM8,36H9V37H8zM9,36H10V37H9zM10,36H11V37H10zM11,36H12V37H11zM12,36H13V37H12zM13,36H14V37H13zM17,36H18V37H17zM18,36H19V37H18zM25,36H26V37H25zM26,36H27V37H26zM29,36H30V37H29zM30,36H31V37H30zM32,36H33V37H32zM33,36H34V37H33zM34,36H35V37H34zM35,36H36V37H35zM36,36H37V37H36zM37,36H38V37H37zM39,36H40V37H39zM40,36H41V37H40zM41,36H42V37H41zM42,36H43V37H42zM47,36H48V37H47zM52,36H53V37H52zM56,36H57V37H56zM57,36H58V37H57zM58,36H59V37H58zM59,36H60V37H59zM60,36H61V37H60zM64,36H65V37H64zM4,37H5V38H4zM7,37H8V38H7zM12,37H13V38H12zM16,37H17V38H16zM19,37H20V38H19zM26,37H27V38H26zM29,37H30V38H29zM32,37H33V38H32zM34,37H35V38H34zM37,37H38V38H37zM39,37H40V38H39zM40,37H41V38H40zM43,37H44V38H43zM48,37H49V38H48zM51,37H52V38H51zM52,37H53V38H52zM56,37H57V38H56zM57,37H58V38H57zM64,37H65V38H64zM4,38H5V39H4zM7,38H8V39H7zM8,38H9V39H8zM10,38H11V39H10zM11,38H12V39H11zM12,38H13V39H12zM14,38H15V39H14zM15,38H16V39H15zM17,38H18V39H17zM18,38H19V39H18zM21,38H22V39H21zM23,38H24V39H23zM24,38H25V39H24zM29,38H30V39H29zM31,38H32V39H31zM33,38H34V39H33zM34,38H35V39H34zM39,38H40V39H39zM41,38H42V39H41zM42,38H43V39H42zM44,38H45V39H44zM49,38H50V39H49zM50,38H51V39H50zM52,38H53V39H52zM55,38H56V39H55zM56,38H57V39H56zM57,38H58V39H57zM58,38H59V39H58zM59,38H60V39H59zM62,38H63V39H62zM63,38H64V39H63zM64,38H65V39H64zM6,39H7V40H6zM7,39H8V40H7zM8,39H9V40H8zM13,39H14V40H13zM14,39H15V40H14zM15,39H16V40H15zM17,39H18V40H17zM18,39H19V40H18zM19,39H20V40H19zM20,39H21V40H20zM21,39H22V40H21zM26,39H27V40H26zM28,39H29V40H28zM34,39H35V40H34zM35,39H36V40H35zM37,39H38V40H37zM40,39H41V40H40zM41,39H42V40H41zM43,39H44V40H43zM45,39H46V40H45zM48,39H49V40H48zM50,39H51V40H50zM52,39H53V40H52zM55,39H56V40H55zM56,39H57V40H56zM58,39H59V40H58zM59,39H60V40H59zM60,39H61V40H60zM63,39H64V40H63zM6,40H7V41H6zM7,40H8V41H7zM10,40H11V41H10zM11,40H12V41H11zM13,40H14V41H13zM16,40H17V41H16zM17,40H18V41H17zM18,40H19V41H18zM19,40H20V41H19zM27,40H28V41H27zM28,40H29V41H28zM29,40H30V41H29zM32,40H33V41H32zM33,40H34V41H33zM34,40H35V41H34zM36,40H37V41H36zM42,40H43V41H42zM43,40H44V41H43zM46,40H47V41H46zM48,40H49V41H48zM49,40H50V41H49zM51,40H52V41H51zM52,40H53V41H52zM53,40H54V41H53zM54,40H55V41H54zM59,40H60V41H59zM61,40H62V41H61zM63,40H64V41H63zM5,41H6V42H5zM6,41H7V42H6zM8,41H9V42H8zM11,41H12V42H11zM12,41H13V42H12zM13,41H14V42H13zM14,41H15V42H14zM16,41H17V42H16zM17,41H18V42H17zM20,41H21V42H20zM21,41H22V42H21zM25,41H26V42H25zM27,41H28V42H27zM28,41H29V42H28zM31,41H32V42H31zM34,41H35V42H34zM36,41H37V42H36zM39,41H40V42H39zM43,41H44V42H43zM47,41H48V42H47zM50,41H51V42H50zM52,41H53V42H52zM53,41H54V42H53zM55,41H56V42H55zM59,41H60V42H59zM61,41H62V42H61zM62,41H63V42H62zM64,41H65V42H64zM4,42H5V43H4zM5,42H6V43H5zM8,42H9V43H8zM10,42H11V43H10zM11,42H12V43H11zM13,42H14V43H13zM14,42H15V43H14zM15,42H16V43H15zM16,42H17V43H16zM17,42H18V43H17zM20,42H21V43H20zM23,42H24V43H23zM24,42H25V43H24zM25,42H26V43H25zM28,42H29V43H28zM29,42H30V43H29zM30,42H31V43H30zM31,42H32V43H31zM33,42H34V43H33zM37,42H38V43H37zM40,42H41V43H40zM42,42H43V43H42zM43,42H44V43H43zM46,42H47V43H46zM54,42H55V43H54zM55,42H56V43H55zM56,42H57V43H56zM58,42H59V43H58zM59,42H60V43H59zM62,42H63V43H62zM64,42H65V43H64zM6,43H7V44H6zM7,43H8V44H7zM8,43H9V44H8zM11,43H12V44H11zM12,43H13V44H12zM14,43H15V44H14zM15,43H16V44H15zM18,43H19V44H18zM20,43H21V44H20zM21,43H22V44H21zM23,43H24V44H23zM25,43H26V44H25zM26,43H27V44H26zM27,43H28V44H27zM28,43H29V44H28zM30,43H31V44H30zM31,43H32V44H31zM35,43H36V44H35zM37,43H38V44H37zM42,43H43V44H42zM43,43H44V44H43zM45,43H46V44H45zM47,43H48V44H47zM48,43H49V44H48zM50,43H51V44H50zM51,43H52V44H51zM52,43H53V44H52zM54,43H55V44H54zM56,43H57V44H56zM57,43H58V44H57zM58,43H59V44H58zM5,44H6V45H5zM7,44H8V45H7zM8,44H9V45H8zM10,44H11V45H10zM11,44H12V45H11zM13,44H14V45H13zM16,44H17V45H16zM18,44H19V45H18zM19,44H20V45H19zM20,44H21V45H20zM22,44H23V45H22zM26,44H27V45H26zM27,44H28V45H27zM29,44H30V45H29zM33,44H34V45H33zM34,44H35V45H34zM37,44H38V45H37zM41,44H42V45H41zM42,44H43V45H42zM45,44H46V45H45zM48,44H49V45H48zM50,44H51V45H50zM51,44H52V45H51zM52,44H53V45H52zM54,44H55V45H54zM58,44H59V45H58zM59,44H60V45H59zM61,44H62V45H61zM62,44H63V45H62zM4,45H5V46H4zM6,45H7V46H6zM7,45H8V46H7zM8,45H9V46H8zM11,45H12V46H11zM14,45H15V46H14zM15,45H16V46H15zM16,45H17V46H16zM17,45H18V46H17zM19,45H20V46H19zM20,45H21V46H20zM21,45H22V46H21zM22,45H23V46H22zM24,45H25V46H24zM29,45H30V46H29zM31,45H32V46H31zM32,45H33V46H32zM34,45H35V46H34zM35,45H36V46H35zM36,45H37V46H36zM38,45H39V46H38zM39,45H40V46H39zM40,45H41V46H40zM41,45H42V46H41zM43,45H44V46H43zM45,45H46V46H45zM50,45H51V46H50zM51,45H52V46H51zM53,45H54V46H53zM54,45H55V46H54zM56,45H57V46H56zM57,45H58V46H57zM60,45H61V46H60zM61,45H62V46H61zM64,45H65V46H64zM4,46H5V47H4zM5,46H6V47H5zM6,46H7V47H6zM7,46H8V47H7zM9,46H10V47H9zM10,46H11V47H10zM12,46H13V47H12zM15,46H16V47H15zM16,46H17V47H16zM17,46H18V47H17zM18,46H19V47H18zM20,46H21V47H20zM22,46H23V47H22zM26,46H27V47H26zM27,46H28V47H27zM28,46H29V47H28zM29,46H30V47H29zM31,46H32V47H31zM33,46H34V47H33zM34,46H35V47H34zM36,46H37V47H36zM37,46H38V47H37zM39,46H40V47H39zM42,46H43V47H42zM43,46H44V47H43zM44,46H45V47H44zM48,46H49V47H48zM50,46H51V47H50zM52,46H53V47H52zM56,46H57V47H56zM58,46H59V47H58zM59,46H60V47H59zM60,46H61V47H60zM61,46H62V47H61zM62,46H63V47H62zM63,46H64V47H63zM64,46H65V47H64zM5,47H6V48H5zM7,47H8V48H7zM9,47H10V48H9zM12,47H13V48H12zM13,47H14V48H13zM15,47H16V48H15zM19,47H20V48H19zM21,47H22V48H21zM23,47H24V48H23zM26,47H27V48H26zM28,47H29V48H28zM29,47H30V48H29zM31,47H32V48H31zM35,47H36V48H35zM36,47H37V48H36zM40,47H41V48H40zM41,47H42V48H41zM42,47H43V48H42zM46,47H47V48H46zM48,47H49V48H48zM52,47H53V48H52zM53,47H54V48H53zM61,47H62V48H61zM62,47H63V48H62zM63,47H64V48H63zM64,47H65V48H64zM7,48H8V49H7zM10,48H11V49H10zM12,48H13V49H12zM14,48H15V49H14zM17,48H18V49H17zM18,48H19V49H18zM23,48H24V49H23zM25,48H26V49H25zM26,48H27V49H26zM27,48H28V49H27zM28,48H29V49H28zM30,48H31V49H30zM31,48H32V49H31zM32,48H33V49H32zM36,48H37V49H36zM37,48H38V49H37zM38,48H39V49H38zM42,48H43V49H42zM44,48H45V49H44zM45,48H46V49H45zM47,48H48V49H47zM49,48H50V49H49zM51,48H52V49H51zM52,48H53V49H52zM53,48H54V49H53zM58,48H59V49H58zM60,48H61V49H60zM61,48H62V49H61zM62,48H63V49H62zM64,48H65V49H64zM6,49H7V50H6zM8,49H9V50H8zM11,49H12V50H11zM12,49H13V50H12zM13,49H14V50H13zM14,49H15V50H14zM15,49H16V50H15zM16,49H17V50H16zM17,49H18V50H17zM18,49H19V50H18zM19,49H20V50H19zM24,49H25V50H24zM27,49H28V50H27zM30,49H31V50H30zM32,49H33V50H32zM34,49H35V50H34zM39,49H40V50H39zM42,49H43V50H42zM43,49H44V50H43zM47,49H48V50H47zM49,49H50V50H49zM52,49H53V50H52zM56,49H57V50H56zM57,49H58V50H57zM62,49H63V50H62zM64,49H65V50H64zM4,50H5V51H4zM5,50H6V51H5zM7,50H8V51H7zM9,50H10V51H9zM10,50H11V51H10zM11,50H12V51H11zM14,50H15V51H14zM16,50H17V51H16zM18,50H19V51H18zM19,50H20V51H19zM22,50H23V51H22zM23,50H24V51H23zM24,50H25V51H24zM25,50H26V51H25zM30,50H31V51H30zM32,50H33V51H32zM33,50H34V51H33zM34,50H35V51H34zM35,50H36V51H35zM36,50H37V51H36zM38,50H39V51H38zM39,50H40V51H39zM40,50H41V51H40zM41,50H42V51H41zM42,50H43V51H42zM43,50H44V51H43zM45,50H46V51H45zM48,50H49V51H48zM50,50H51V51H50zM52,50H53V51H52zM56,50H57V51H56zM57,50H58V51H57zM58,50H59V51H58zM60,50H61V51H60zM63,50H64V51H63zM64,50H65V51H64zM11,51H12V52H11zM14,51H15V52H14zM16,51H17V52H16zM18,51H19V52H18zM20,51H21V52H20zM21,51H22V52H21zM23,51H24V52H23zM24,51H25V52H24zM25,51H26V52H25zM27,51H28V52H27zM31,51H32V52H31zM33,51H34V52H33zM34,51H35V52H34zM36,51H37V52H36zM38,51H39V52H38zM39,51H40V52H39zM41,51H42V52H41zM42,51H43V52H42zM44,51H45V52H44zM47,51H48V52H47zM49,51H50V52H49zM50,51H51V52H50zM54,51H55V52H54zM56,51H57V52H56zM57,51H58V52H57zM58,51H59V52H58zM59,51H60V52H59zM60,51H61V52H60zM63,51H64V52H63zM4,52H5V53H4zM6,52H7V53H6zM7,52H8V53H7zM8,52H9V53H8zM9,52H10V53H9zM10,52H11V53H10zM12,52H13V53H12zM16,52H17V53H16zM17,52H18V53H17zM18,52H19V53H18zM19,52H20V53H19zM22,52H23V53H22zM23,52H24V53H23zM24,52H25V53H24zM25,52H26V53H25zM26,52H27V53H26zM27,52H28V53H27zM32,52H33V53H32zM33,52H34V53H33zM34,52H35V53H34zM36,52H37V53H36zM38,52H39V53H38zM40,52H41V53H40zM41,52H42V53H41zM42,52H43V53H42zM44,52H45V53H44zM47,52H48V53H47zM48,52H49V53H48zM49,52H50V53H49zM50,52H51V53H50zM51,52H52V53H51zM53,52H54V53H53zM54,52H55V53H54zM58,52H59V53H58zM59,52H60V53H59zM63,52H64V53H63zM64,52H65V53H64zM6,53H7V54H6zM7,53H8V54H7zM9,53H10V54H9zM20,53H21V54H20zM24,53H25V54H24zM26,53H27V54H26zM27,53H28V54H27zM29,53H30V54H29zM31,53H32V54H31zM34,53H35V54H34zM35,53H36V54H35zM38,53H39V54H38zM41,53H42V54H41zM42,53H43V54H42zM44,53H45V54H44zM50,53H51V54H50zM51,53H52V54H51zM52,53H53V54H52zM53,53H54V54H53zM55,53H56V54H55zM56,53H57V54H56zM58,53H59V54H58zM63,53H64V54H63zM64,53H65V54H64zM6,54H7V55H6zM7,54H8V55H7zM8,54H9V55H8zM9,54H10V55H9zM10,54H11V55H10zM11,54H12V55H11zM12,54H13V55H12zM13,54H14V55H13zM15,54H16V55H15zM18,54H19V55H18zM19,54H20V55H19zM22,54H23V55H22zM23,54H24V55H23zM28,54H29V55H28zM29,54H30V55H29zM30,54H31V55H30zM35,54H36V55H35zM36,54H37V55H36zM40,54H41V55H40zM43,54H44V55H43zM44,54H45V55H44zM45,54H46V55H45zM48,54H49V55H48zM53,54H54V55H53zM54,54H55V55H54zM56,54H57V55H56zM58,54H59V55H58zM59,54H60V55H59zM64,54H65V55H64zM4,55H5V56H4zM5,55H6V56H5zM6,55H7V56H6zM8,55H9V56H8zM13,55H14V56H13zM15,55H16V56H15zM17,55H18V56H17zM21,55H22V56H21zM24,55H25V56H24zM25,55H26V56H25zM26,55H27V56H26zM27,55H28V56H27zM30,55H31V56H30zM31,55H32V56H31zM32,55H33V56H32zM34,55H35V56H34zM35,55H36V56H35zM36,55H37V56H36zM38,55H39V56H38zM41,55H42V56H41zM44,55H45V56H44zM45,55H46V56H45zM47,55H48V56H47zM48,55H49V56H48zM49,55H50V56H49zM51,55H52V56H51zM52,55H53V56H52zM57,55H58V56H57zM58,55H59V56H58zM60,55H61V56H60zM4,56H5V57H4zM5,56H6V57H5zM6,56H7V57H6zM7,56H8V57H7zM10,56H11V57H10zM15,56H16V57H15zM17,56H18V57H17zM18,56H19V57H18zM19,56H20V57H19zM20,56H21V57H20zM22,56H23V57H22zM25,56H26V57H25zM27,56H28V57H27zM28,56H29V57H28zM29,56H30V57H29zM32,56H33V57H32zM33,56H34V57H33zM34,56H35V57H34zM35,56H36V57H35zM36,56H37V57H36zM40,56H41V57H40zM43,56H44V57H43zM45,56H46V57H45zM46,56H47V57H46zM48,56H49V57H48zM49,56H50V57H49zM50,56H51V57H50zM51,56H52V57H51zM52,56H53V57H52zM53,56H54V57H53zM56,56H57V57H56zM57,56H58V57H57zM58,56H59V57H58zM59,56H60V57H59zM60,56H61V57H60zM62,56H63V57H62zM12,57H13V58H12zM13,57H14V58H13zM17,57H18V58H17zM20,57H21V58H20zM21,57H22V58H21zM22,57H23V58H22zM23,57H24V58H23zM24,57H25V58H24zM29,57H30V58H29zM30,57H31V58H30zM31,57H32V58H31zM32,57H33V58H32zM36,57H37V58H36zM38,57H39V58H38zM39,57H40V58H39zM40,57H41V58H40zM42,57H43V58H42zM44,57H45V58H44zM47,57H48V58H47zM51,57H52V58H51zM54,57H55V58H54zM56,57H57V58H56zM60,57H61V58H60zM63,57H64V58H63zM64,57H65V58H64zM4,58H5V59H4zM5,58H6V59H5zM6,58H7V59H6zM7,58H8V59H7zM8,58H9V59H8zM9,58H10V59H9zM10,58H11V59H10zM14,58H15V59H14zM16,58H17V59H16zM17,58H18V59H17zM19,58H20V59H19zM21,58H22V59H21zM22,58H23V59H22zM23,58H24V59H23zM25,58H26V59H25zM26,58H27V59H26zM27,58H28V59H27zM28,58H29V59H28zM29,58H30V59H29zM30,58H31V59H30zM32,58H33V59H32zM34,58H35V59H34zM36,58H37V59H36zM38,58H39V59H38zM40,58H41V59H40zM42,58H43V59H42zM43,58H44V59H43zM45,58H46V59H45zM46,58H47V59H46zM47,58H48V59H47zM51,58H52V59H51zM52,58H53V59H52zM53,58H54V59H53zM56,58H57V59H56zM58,58H59V59H58zM60,58H61V59H60zM61,58H62V59H61zM62,58H63V59H62zM63,58H64V59H63zM64,58H65V59H64zM4,59H5V60H4zM10,59H11V60H10zM15,59H16V60H15zM16,59H17V60H16zM19,59H20V60H19zM20,59H21V60H20zM23,59H24V60H23zM26,59H27V60H26zM28,59H29V60H28zM30,59H31V60H30zM32,59H33V60H32zM36,59H37V60H36zM37,59H38V60H37zM38,59H39V60H38zM39,59H40V60H39zM42,59H43V60H42zM43,59H44V60H43zM47,59H48V60H47zM50,59H51V60H50zM51,59H52V60H51zM52,59H53V60H52zM53,59H54V60H53zM54,59H55V60H54zM56,59H57V60H56zM60,59H61V60H60zM61,59H62V60H61zM62,59H63V60H62zM64,59H65V60H64zM4,60H5V61H4zM6,60H7V61H6zM7,60H8V61H7zM8,60H9V61H8zM10,60H11V61H10zM13,60H14V61H13zM18,60H19V61H18zM19,60H20V61H19zM20,60H21V61H20zM21,60H22V61H21zM22,60H23V61H22zM26,60H27V61H26zM29,60H30V61H29zM32,60H33V61H32zM33,60H34V61H33zM34,60H35V61H34zM35,60H36V61H35zM36,60H37V61H36zM41,60H42V61H41zM42,60H43V61H42zM43,60H44V61H43zM44,60H45V61H44zM45,60H46V61H45zM47,60H48V61H47zM49,60H50V61H49zM50,60H51V61H50zM52,60H53V61H52zM53,60H54V61H53zM56,60H57V61H56zM57,60H58V61H57zM58,60H59V61H58zM59,60H60V61H59zM60,60H61V61H60zM64,60H65V61H64zM4,61H5V62H4zM6,61H7V62H6zM7,61H8V62H7zM8,61H9V62H8zM10,61H11V62H10zM12,61H13V62H12zM13,61H14V62H13zM14,61H15V62H14zM15,61H16V62H15zM17,61H18V62H17zM19,61H20V62H19zM21,61H22V62H21zM23,61H24V62H23zM24,61H25V62H24zM26,61H27V62H26zM27,61H28V62H27zM28,61H29V62H28zM31,61H32V62H31zM34,61H35V62H34zM42,61H43V62H42zM49,61H50V62H49zM52,61H53V62H52zM55,61H56V62H55zM56,61H57V62H56zM57,61H58V62H57zM59,61H60V62H59zM60,61H61V62H60zM62,61H63V62H62zM63,61H64V62H63zM4,62H5V63H4zM6,62H7V63H6zM7,62H8V63H7zM8,62H9V63H8zM10,62H11V63H10zM13,62H14V63H13zM16,62H17V63H16zM19,62H20V63H19zM20,62H21V63H20zM22,62H23V63H22zM23,62H24V63H23zM24,62H25V63H24zM25,62H26V63H25zM26,62H27V63H26zM29,62H30V63H29zM30,62H31V63H30zM35,62H36V63H35zM36,62H37V63H36zM38,62H39V63H38zM42,62H43V63H42zM49,62H50V63H49zM50,62H51V63H50zM52,62H53V63H52zM53,62H54V63H53zM55,62H56V63H55zM57,62H58V63H57zM60,62H61V63H60zM61,62H62V63H61zM64,62H65V63H64zM4,63H5V64H4zM10,63H11V64H10zM13,63H14V64H13zM15,63H16V64H15zM19,63H20V64H19zM20,63H21V64H20zM21,63H22V64H21zM22,63H23V64H22zM23,63H24V64H23zM25,63H26V64H25zM26,63H27V64H26zM27,63H28V64H27zM30,63H31V64H30zM31,63H32V64H31zM32,63H33V64H32zM33,63H34V64H33zM35,63H36V64H35zM36,63H37V64H36zM37,63H38V64H37zM38,63H39V64H38zM39,63H40V64H39zM41,63H42V64H41zM42,63H43V64H42zM43,63H44V64H43zM44,63H45V64H44zM45,63H46V64H45zM47,63H48V64H47zM50,63H51V64H50zM51,63H52V64H51zM53,63H54V64H53zM54,63H55V64H54zM56,63H57V64H56zM57,63H58V64H57zM60,63H61V64H60zM4,64H5V65H4zM5,64H6V65H5zM6,64H7V65H6zM7,64H8V65H7zM8,64H9V65H8zM9,64H10V65H9zM10,64H11V65H10zM14,64H15V65H14zM15,64H16V65H15zM16,64H17V65H16zM20,64H21V65H20zM25,64H26V65H25zM30,64H31V65H30zM31,64H32V65H31zM32,64H33V65H32zM33,64H34V65H33zM37,64H38V65H37zM39,64H40V65H39zM41,64H42V65H41zM42,64H43V65H42zM43,64H44V65H43zM44,64H45V65H44zM46,64H47V65H46zM47,64H48V65H47zM48,64H49V65H48zM49,64H50V65H49zM51,64H52V65H51zM52,64H53V65H52zM53,64H54V65H53zM56,64H57V65H56zM61,64H62V65H61zM62,64H63V65H62zM63,64H64V65H63zM64,64H65V65H64z" id="qr-path" fill="#000000" fill-opacity="1" fill-rule="nonzero" stroke="none"/></svg>